<svg width="44" height="44" viewBox="0 0 44 44" fill="none" xmlns="http://www.w3.org/2000/svg">
<g clip-path="url(#clip0_6_158)">
<path d="M12.8333 11C13.3195 11 13.7859 10.8069 14.1297 10.4631C14.4735 10.1193 14.6666 9.65294 14.6666 9.16671C14.6666 8.68048 14.4735 8.21416 14.1297 7.87035C13.7859 7.52653 13.3195 7.33337 12.8333 7.33337H9.16665C8.68042 7.33337 8.2141 7.52653 7.87028 7.87035C7.52647 8.21416 7.33331 8.68048 7.33331 9.16671V34.8334C7.33331 35.3196 7.52647 35.7859 7.87028 36.1297C8.2141 36.4736 8.68042 36.6667 9.16665 36.6667H12.8333C13.3195 36.6667 13.7859 36.4736 14.1297 36.1297C14.4735 35.7859 14.6666 35.3196 14.6666 34.8334C14.6666 34.3471 14.4735 33.8808 14.1297 33.537C13.7859 33.1932 13.3195 33 12.8333 33H11V11H12.8333ZM38.17 20.9367L33 13.6034C32.7196 13.2081 32.2941 12.94 31.8166 12.8575C31.3391 12.7751 30.8483 12.885 30.4516 13.1634C30.2534 13.3023 30.0846 13.4792 29.955 13.6837C29.8254 13.8882 29.7377 14.1164 29.6968 14.355C29.6559 14.5936 29.6626 14.838 29.7167 15.074C29.7707 15.31 29.871 15.533 30.0117 15.73L33.165 20.1667H18.3333C17.8471 20.1667 17.3808 20.3599 17.037 20.7037C16.6931 21.0475 16.5 21.5138 16.5 22C16.5 22.4863 16.6931 22.9526 17.037 23.2964C17.3808 23.6402 17.8471 23.8334 18.3333 23.8334H33L29.7 28.2334C29.5555 28.426 29.4504 28.6452 29.3907 28.8784C29.3309 29.1116 29.3177 29.3543 29.3517 29.5926C29.3858 29.831 29.4664 30.0603 29.5891 30.2674C29.7118 30.4746 29.874 30.6556 30.0666 30.8C30.384 31.038 30.77 31.1667 31.1666 31.1667C31.4513 31.1667 31.732 31.1004 31.9865 30.9732C32.2411 30.8459 32.4625 30.6611 32.6333 30.4334L38.1333 23.1C38.3681 22.79 38.4982 22.4132 38.5048 22.0244C38.5114 21.6355 38.3941 21.2546 38.17 20.9367Z" fill="white"/>
</g>
<defs>
<clipPath id="clip0_6_158">
<rect width="44" height="44" fill="white"/>
</clipPath>
</defs>
</svg>
