<svg width="44" height="44" viewBox="0 0 44 44" fill="none" xmlns="http://www.w3.org/2000/svg">
<path d="M22 17.8201C26.5563 17.8201 30.25 14.1264 30.25 9.57007C30.25 5.01372 26.5563 1.32007 22 1.32007C17.4437 1.32007 13.75 5.01372 13.75 9.57007C13.75 14.1264 17.4437 17.8201 22 17.8201Z" fill="white"/>
<path d="M42.4324 36.905C41.5766 33.0087 39.6143 29.4422 36.7812 26.6338C36.0935 25.9437 35.3483 25.3135 34.5537 24.75C30.9347 22.0355 26.5236 20.5861 21.9999 20.625C16.4685 20.5967 11.1502 22.7566 7.20491 26.6338C4.37173 29.4422 2.40943 33.0087 1.55366 36.905C1.40491 37.594 1.41295 38.3076 1.57717 38.9931C1.74139 39.6785 2.0576 40.3183 2.50241 40.865C2.96307 41.4236 3.54316 41.8716 4.19994 42.1762C4.85673 42.4808 5.57349 42.6342 6.29741 42.625H37.7024C38.4285 42.6255 39.1453 42.4626 39.7999 42.1484C40.4544 41.8342 41.0299 41.3768 41.4837 40.81C41.9205 40.2697 42.2321 39.6392 42.3962 38.964C42.5602 38.2888 42.5726 37.5856 42.4324 36.905Z" fill="white"/>
</svg>
