<svg width="34" height="34" viewBox="0 0 34 34" fill="none" xmlns="http://www.w3.org/2000/svg">
<path d="M33.7836 9.87316L32.098 3.61086C31.9263 2.98896 31.6276 2.40603 31.2191 1.89595C30.8107 1.38587 30.3007 0.958813 29.7189 0.639613C29.137 0.320413 28.4948 0.115434 27.8297 0.0365904C27.1646 -0.0422529 26.4898 0.00661283 25.8445 0.180347L22.5914 1.02179C22.3762 1.07623 22.1743 1.17105 21.9975 1.30077C21.8206 1.43049 21.6723 1.59255 21.561 1.77759C21.4498 1.96263 21.3778 2.16699 21.3492 2.37889C21.3206 2.59078 21.3361 2.806 21.3946 3.01214L21.8329 4.6303L3.93208 9.17735C3.50115 9.2875 3.13324 9.5571 2.90894 9.92711C2.68463 10.2971 2.6222 10.7374 2.73532 11.1515L3.17357 12.7697L1.488 13.1904C1.04096 13.244 0.634425 13.466 0.357832 13.8074C0.081239 14.1488 -0.0427563 14.5817 0.0131239 15.0108C0.0690041 15.44 0.300182 15.8303 0.655802 16.0958C1.01142 16.3613 1.46235 16.4804 1.90939 16.4267C2.05495 16.4435 2.20208 16.4435 2.34764 16.4267L4.03321 15.9898L4.47146 17.608C4.58761 18.0166 4.86598 18.3651 5.24683 18.5789C5.50208 18.7243 5.79281 18.8025 6.08961 18.8054C6.23458 18.8299 6.38289 18.8299 6.52786 18.8054L12.0397 17.1387V17.8183C12.0409 18.5368 12.2139 19.2454 12.5454 19.8896L4.11749 27.9804C3.80009 28.283 3.62089 28.6942 3.61931 29.1236C3.61773 29.553 3.7939 29.9654 4.10907 30.2701C4.42423 30.5748 4.85257 30.7469 5.29986 30.7484C5.74715 30.7499 6.17675 30.5808 6.49415 30.2782L14.922 22.1874L15.394 22.3654V32.3818C15.394 32.811 15.5716 33.2226 15.8877 33.5261C16.2038 33.8295 16.6325 34 17.0795 34C17.5266 34 17.9553 33.8295 18.2714 33.5261C18.5875 33.2226 18.7651 32.811 18.7651 32.3818V22.3816C18.9321 22.3267 19.0954 22.2618 19.2539 22.1874L27.6818 30.2782C27.9992 30.5808 28.4288 30.7499 28.8761 30.7484C29.3234 30.7469 29.7517 30.5748 30.0669 30.2701C30.382 29.9654 30.5582 29.553 30.5566 29.1236C30.5551 28.6942 30.3759 28.283 30.0585 27.9804L21.6306 19.8896C21.9578 19.2433 22.136 18.5368 22.1531 17.8183V14.582L24.4286 13.9995L24.85 15.6176C24.9488 15.9707 25.1692 16.2812 25.4753 16.4986C25.7813 16.7161 26.1551 16.8276 26.5356 16.8151H26.9739L30.227 15.9736C30.8845 15.808 31.5005 15.5167 32.0381 15.1173C32.5757 14.7179 33.0239 14.2186 33.3559 13.6491C33.6879 13.0796 33.8969 12.4517 33.9704 11.8029C34.0438 11.1542 33.9803 10.4978 33.7836 9.87316ZM18.782 17.8183C18.7802 18.235 18.6112 18.6349 18.31 18.9349C17.9975 19.224 17.581 19.3863 17.147 19.388C16.7048 19.3862 16.281 19.2176 15.9671 18.9187C15.6557 18.6173 15.4801 18.2105 15.4783 17.786V16.1678L18.782 15.3911V17.8183ZM7.30323 15.0027L6.42673 11.8797L22.7094 7.68863L23.1476 9.3068L23.5859 10.925L7.30323 15.0027ZM30.3619 11.9282C30.2513 12.1139 30.1036 12.2768 29.9271 12.4073C29.7506 12.5379 29.5489 12.6335 29.3337 12.6888L27.6481 13.1095L26.3333 8.41681L25.5243 5.29375L25.086 3.67558L26.7716 3.25486C26.9863 3.19867 27.2105 3.18385 27.4312 3.21127C27.6519 3.23869 27.8648 3.3078 28.0576 3.41462C28.2503 3.52143 28.4191 3.66383 28.5542 3.8336C28.6894 4.00337 28.7881 4.19715 28.8448 4.40376L30.5304 10.6661C30.5926 10.8765 30.6098 11.0968 30.5808 11.3137C30.5518 11.5307 30.4773 11.7397 30.3619 11.9282Z" fill="white"/>
</svg>
