<svg width="121" height="13" viewBox="0 0 121 13" fill="none" xmlns="http://www.w3.org/2000/svg">
<path d="M12.072 8.824C12.072 8.696 12.048 8.568 12 8.44C11.952 8.296 11.864 8.224 11.736 8.224H6.936C6.472 8.224 6.056 8.12 5.688 7.912C5.32 7.704 5 7.44 4.728 7.12C4.456 6.784 4.24 6.416 4.08 6.016C3.92 5.6 3.824 5.192 3.792 4.792H8.568C8.568 4.824 8.584 4.84 8.616 4.84C8.68 4.904 8.768 4.968 8.88 5.032C9.008 5.08 9.08 5.104 9.096 5.104H13.656C14.168 5.104 14.608 5.232 14.976 5.488C15.344 5.728 15.64 6.04 15.864 6.424C16.104 6.792 16.28 7.192 16.392 7.624C16.504 8.056 16.56 8.456 16.56 8.824V8.968C16.56 9.384 16.464 9.832 16.272 10.312C16.08 10.776 15.824 11.208 15.504 11.608C15.2 12.008 14.84 12.344 14.424 12.616C14.024 12.872 13.608 13 13.176 13H0.936C1.016 12.84 1.176 12.584 1.416 12.232C1.672 11.88 1.936 11.528 2.208 11.176C2.496 10.808 2.76 10.488 3 10.216C3.24 9.928 3.384 9.784 3.432 9.784H11.592C11.832 9.784 11.968 9.712 12 9.568C12.048 9.424 12.072 9.272 12.072 9.112V8.824ZM19.776 0.279999C19.408 0.823999 18.984 1.368 18.504 1.912C18.04 2.456 17.528 2.992 16.968 3.52H3.984C4.128 3.152 4.32 2.776 4.56 2.392C4.816 2.008 5.104 1.664 5.424 1.36C5.744 1.04 6.08 0.784 6.432 0.592C6.8 0.383999 7.168 0.279999 7.536 0.279999H19.776ZM19.2424 3.52V3.496C19.2584 3.432 19.3704 3.256 19.5784 2.968C19.8024 2.68 20.0584 2.36 20.3464 2.008C20.6504 1.656 20.9544 1.32 21.2584 1C21.5784 0.664 21.8504 0.423999 22.0744 0.279999H34.0984C33.9864 0.487999 33.8024 0.767999 33.5464 1.12C33.2904 1.472 33.0184 1.824 32.7304 2.176C32.4424 2.528 32.1624 2.84 31.8904 3.112C31.6184 3.368 31.4104 3.504 31.2664 3.52H19.2424ZM20.3224 13L23.2984 4.792H27.9064L24.9304 13H20.3224ZM33.4314 5.608L33.7194 4.792H38.3274C38.1514 5.32 38.0074 5.744 37.8954 6.064C37.7994 6.368 37.7274 6.6 37.6794 6.76C37.6314 6.92 37.5994 7.032 37.5834 7.096C37.5834 7.144 37.5834 7.184 37.5834 7.216C37.5034 7.568 37.4634 7.824 37.4634 7.984C37.4634 8.544 37.6154 8.984 37.9194 9.304C38.2394 9.608 38.5834 9.76 38.9514 9.76H40.1274C40.5114 9.76 40.8634 9.68 41.1834 9.52C41.5194 9.36 41.8154 9.16 42.0714 8.92C42.3274 8.68 42.5514 8.424 42.7434 8.152C42.9354 7.88 43.0874 7.632 43.1994 7.408L44.1354 4.792H48.6954L48.1914 6.208C47.7914 7.312 47.3834 8.288 46.9674 9.136C46.5514 9.968 46.0794 10.672 45.5514 11.248C45.0234 11.824 44.4154 12.264 43.7274 12.568C43.0394 12.856 42.2154 13 41.2554 13H38.4474C37.3114 13 36.3674 12.936 35.6154 12.808C34.8634 12.664 34.2634 12.448 33.8154 12.16C33.3674 11.872 33.0474 11.504 32.8554 11.056C32.6634 10.592 32.5674 10.04 32.5674 9.4C32.5674 9.224 32.5754 9.048 32.5914 8.872C32.6074 8.696 32.6314 8.496 32.6634 8.272C32.7434 7.856 32.8554 7.448 32.9994 7.048C33.1434 6.632 33.2874 6.152 33.4314 5.608ZM50.3514 0.279999L49.1754 3.52H44.6154L45.7914 0.279999H50.3514ZM39.8634 0.279999C39.6394 0.951999 39.4314 1.552 39.2394 2.08C39.0474 2.608 38.8794 3.088 38.7354 3.52H34.1754L35.3274 0.279999H39.8634ZM63.3508 7.264C62.6628 8.304 61.9668 9.192 61.2628 9.928C60.5748 10.648 59.8228 11.24 59.0068 11.704C58.2068 12.152 57.3188 12.48 56.3428 12.688C55.3828 12.896 54.2788 13 53.0308 13H47.0548L50.0308 4.792H54.6868L52.8868 9.76H53.5108C53.9428 9.76 54.4148 9.68 54.9268 9.52C55.4388 9.344 55.9428 9.12 56.4388 8.848C56.9348 8.576 57.3908 8.272 57.8068 7.936C58.2388 7.584 58.5748 7.232 58.8148 6.88C58.9108 6.752 59.0148 6.608 59.1268 6.448C59.2548 6.288 59.3588 6.104 59.4388 5.896C59.5188 5.704 59.5908 5.52 59.6548 5.344C59.7348 5.152 59.7908 4.968 59.8228 4.792H64.5988C64.4708 5.208 64.3028 5.632 64.0948 6.064C63.8868 6.48 63.6388 6.88 63.3508 7.264ZM64.8628 3.088C64.8628 3.168 64.8628 3.24 64.8628 3.304C64.8628 3.368 64.8548 3.44 64.8388 3.52H50.5108L51.6868 0.279999H62.1268C63.0868 0.279999 63.7828 0.543999 64.2148 1.072C64.6468 1.6 64.8628 2.272 64.8628 3.088ZM66.2008 13L68.4088 6.952L67.5208 4.792H75.4648L73.0168 6.952L70.8088 13H66.2008ZM65.6968 0.279999H70.8328L72.0328 3.28L75.4408 0.279999H80.5768L76.9048 3.52H67.0168L65.6968 0.279999ZM100.774 13H96.5019L95.9979 10.288C95.9659 10.384 95.8459 10.568 95.6379 10.84C95.4459 11.112 95.2219 11.4 94.9659 11.704C94.7259 12.008 94.4859 12.288 94.2459 12.544C94.0059 12.8 93.8299 12.952 93.7179 13H83.5659C83.5979 12.84 83.6139 12.784 83.6139 12.832V12.76L89.8539 4.792H94.6779L91.1259 9.544V9.784H95.9979L95.2539 4.792H99.5019L100.774 13ZM90.8379 3.52L92.2539 1.72C92.3019 1.624 92.3979 1.496 92.5419 1.336C92.6859 1.176 92.8379 1.024 92.9979 0.88C93.1739 0.719999 93.3419 0.583999 93.5019 0.472C93.6779 0.343999 93.8219 0.279999 93.9339 0.279999H97.9659C98.1259 0.279999 98.2699 0.367999 98.3979 0.543999C98.5419 0.719999 98.6619 0.936 98.7579 1.192C98.8539 1.448 98.9339 1.72 98.9979 2.008C99.0779 2.28 99.1419 2.512 99.1899 2.704L99.3099 3.52H90.8379ZM101.755 13V12.976C101.771 12.912 101.883 12.736 102.091 12.448C102.315 12.16 102.571 11.84 102.859 11.488C103.163 11.136 103.467 10.8 103.771 10.48C104.091 10.144 104.363 9.904 104.587 9.76H107.467L109.267 4.792H113.875L112.075 9.76H116.611C116.499 9.984 116.307 10.28 116.035 10.648C115.779 11 115.499 11.352 115.195 11.704C114.907 12.056 114.619 12.36 114.331 12.616C114.059 12.872 113.859 13 113.731 13H101.755ZM105.211 3.52V3.496C105.227 3.432 105.339 3.256 105.547 2.968C105.771 2.68 106.027 2.36 106.315 2.008C106.619 1.656 106.923 1.32 107.227 1C107.547 0.664 107.819 0.423999 108.043 0.279999H120.067C119.955 0.503999 119.763 0.799999 119.491 1.168C119.235 1.52 118.955 1.872 118.651 2.224C118.363 2.576 118.075 2.88 117.787 3.136C117.515 3.392 117.315 3.52 117.187 3.52H105.211Z" fill="white"/>
</svg>
