<svg width="34" height="34" viewBox="0 0 34 34" fill="none" xmlns="http://www.w3.org/2000/svg">
<path d="M32.3 20.3997H30.6V3.39995H32.3C32.7509 3.39995 33.1833 3.22085 33.5021 2.90204C33.8209 2.58323 34 2.15084 34 1.69998C34 1.24911 33.8209 0.816719 33.5021 0.497911C33.1833 0.179104 32.7509 0 32.3 0H1.7C1.24913 0 0.81673 0.179104 0.497918 0.497911C0.179107 0.816719 0 1.24911 0 1.69998C0 2.15084 0.179107 2.58323 0.497918 2.90204C0.81673 3.22085 1.24913 3.39995 1.7 3.39995H3.4V20.3997H1.7C1.24913 20.3997 0.81673 20.5788 0.497918 20.8976C0.179107 21.2164 0 21.6488 0 22.0997C0 22.5506 0.179107 22.9829 0.497918 23.3018C0.81673 23.6206 1.24913 23.7997 1.7 23.7997H15.3V25.7546L7.565 30.8546C7.24767 31.051 7.00379 31.3464 6.87101 31.6952C6.73822 32.044 6.7239 32.4267 6.83025 32.7845C6.9366 33.1422 7.15772 33.455 7.45949 33.6746C7.76125 33.8942 8.1269 34.0084 8.5 33.9995C8.83422 34.0033 9.16123 33.9023 9.435 33.7105L15.3 29.8346V32.2995C15.3 32.7504 15.4791 33.1828 15.7979 33.5016C16.1167 33.8204 16.5491 33.9995 17 33.9995C17.4509 33.9995 17.8833 33.8204 18.2021 33.5016C18.5209 33.1828 18.7 32.7504 18.7 32.2995V29.8346L24.565 33.7105C24.8388 33.9023 25.1658 34.0033 25.5 33.9995C25.8632 33.9967 26.216 33.8777 26.5066 33.6598C26.7972 33.4419 27.0104 33.1367 27.1149 32.7889C27.2195 32.4411 27.2099 32.0689 27.0875 31.7269C26.9651 31.3849 26.7365 31.0911 26.435 30.8886L18.7 25.7886V23.7997H32.3C32.7509 23.7997 33.1833 23.6206 33.5021 23.3018C33.8209 22.9829 34 22.5506 34 22.0997C34 21.6488 33.8209 21.2164 33.5021 20.8976C33.1833 20.5788 32.7509 20.3997 32.3 20.3997ZM27.2 20.3997H6.8V3.39995H27.2V20.3997ZM12.937 17.4418C13.3901 17.7095 13.9067 17.8507 14.433 17.8507C14.9593 17.8507 15.4759 17.7095 15.929 17.4418L21.029 14.4838C21.465 14.2162 21.8251 13.8413 22.0749 13.3948C22.3247 12.9484 22.4559 12.4454 22.4559 11.9338C22.4559 11.4223 22.3247 10.9192 22.0749 10.4728C21.8251 10.0264 21.465 9.65147 21.029 9.38387L15.929 6.42591C15.4759 6.15822 14.9593 6.017 14.433 6.017C13.9067 6.017 13.3901 6.15822 12.937 6.42591C12.4804 6.68329 12.1019 7.05931 11.8416 7.51418C11.5812 7.96905 11.4487 8.48585 11.458 9.00987V14.9258C11.4608 15.4383 11.5991 15.941 11.8589 16.3828C12.1186 16.8247 12.4906 17.19 12.937 17.4418ZM14.858 9.65586L18.7 11.8998L14.824 14.1438L14.858 9.65586Z" fill="white"/>
</svg>
