<svg width="30" height="30" viewBox="0 0 30 30" fill="none" xmlns="http://www.w3.org/2000/svg">
<path d="M4.5 24.0017H10.86C11.0574 24.0029 11.2531 23.9651 11.4359 23.8904C11.6186 23.8158 11.7848 23.7058 11.925 23.5669L22.305 13.1749L26.565 9.00609C26.7056 8.86668 26.8172 8.70083 26.8933 8.51809C26.9695 8.33536 27.0087 8.13936 27.0087 7.9414C27.0087 7.74344 26.9695 7.54743 26.8933 7.3647C26.8172 7.18196 26.7056 7.01611 26.565 6.8767L20.205 0.443569C20.0656 0.303017 19.8997 0.191458 19.7169 0.115327C19.5341 0.039196 19.338 0 19.14 0C18.942 0 18.7459 0.039196 18.5631 0.115327C18.3803 0.191458 18.2144 0.303017 18.075 0.443569L13.845 4.68734L3.435 15.0793C3.29598 15.2194 3.18599 15.3856 3.11134 15.5683C3.0367 15.751 2.99886 15.9467 3 16.144V22.5022C3 22.8999 3.15804 23.2813 3.43934 23.5625C3.72064 23.8438 4.10218 24.0017 4.5 24.0017ZM18.0753 4.68703C18.6634 4.09914 19.6166 4.09914 20.2047 4.68703L22.3197 6.80142C22.908 7.38955 22.908 8.34328 22.3197 8.93142C21.7316 9.51931 20.7784 9.51931 20.1903 8.93142L18.0753 6.81703C17.487 6.2289 17.487 5.27516 18.0753 4.68703ZM6 18.002C6 17.206 6.31626 16.4427 6.87917 15.8799L12.7731 9.98769C13.9451 8.81604 15.8449 8.81604 17.0169 9.98769C18.1894 11.1598 18.1894 13.0606 17.0169 14.2327L11.1242 20.1237C10.5612 20.6865 9.79748 21.0026 9.00149 21.0026C7.34429 21.0026 6 19.6592 6 18.002ZM28.5 27.0009H1.5C1.10218 27.0009 0.720644 27.1589 0.43934 27.4401C0.158035 27.7213 0 28.1027 0 28.5004C0 28.8981 0.158035 29.2796 0.43934 29.5608C0.720644 29.842 1.10218 30 1.5 30H28.5C28.8978 30 29.2794 29.842 29.5607 29.5608C29.842 29.2796 30 28.8981 30 28.5004C30 28.1027 29.842 27.7213 29.5607 27.4401C29.2794 27.1589 28.8978 27.0009 28.5 27.0009Z" fill="white"/>
</svg>
